<svg width="121" height="121" fill="none" xmlns="http://www.w3.org/2000/svg"><path d="M91.906 3c8.121 0 14.595 2.623 19.033 7.06C115.377 14.499 118 20.974 118 29.095v62.812c0 8.121-2.623 14.595-7.061 19.033-4.438 4.438-10.912 7.061-19.033 7.061H29.094c-8.121 0-14.596-2.623-19.033-7.061C5.623 106.501 3 100.027 3 91.906V29.094c0-8.121 2.623-14.596 7.06-19.033C14.499 5.623 20.974 3 29.095 3h62.812Z" fill="#2A0033" stroke="#E474FF" stroke-width="5"/><path fill-rule="evenodd" clip-rule="evenodd" d="M25 31.996a3 3 0 0 1 6 0v57.008a3 3 0 0 1-6 0V31.996ZM38 38c0-1.657 1.346-3 3-3 1.657 0 3 1.338 3 3v45c0 1.657-1.346 3-3 3-1.657 0-3-1.338-3-3V38Zm13 5.995a3 3 0 0 1 6 0v33.01a3 3 0 0 1-6 0v-33.01ZM95 89.004a3 3 0 0 1-6 0V31.996a3 3 0 0 1 6 0v57.008ZM82 83c0 1.657-1.347 3-3 3-1.657 0-3-1.338-3-3V38c0-1.657 1.347-3 3-3 1.657 0 3 1.338 3 3v45Zm-13-5.996a3 3 0 0 1-6 0V43.995a3 3 0 0 1 6 0v33.01Z" fill="#E26DFF"/></svg>