<svg width="121" height="121" viewBox="0 0 121 121" fill="none" xmlns="http://www.w3.org/2000/svg">
<path d="M91.9062 3C100.027 3 106.501 5.62293 110.939 10.0607C115.377 14.4985 118 20.9727 118 29.0938V91.9062C118 100.027 115.377 106.501 110.939 110.939C106.501 115.377 100.027 118 91.9062 118H29.0938C20.9727 118 14.4985 115.377 10.0607 110.939C5.62293 106.501 3 100.027 3 91.9062V29.0938C3 20.9727 5.62293 14.4985 10.0607 10.0607C14.4985 5.62293 20.9727 3 29.0938 3H91.9062Z" fill="#2A0033" stroke="#E474FF" stroke-width="5"/>
<path fill-rule="evenodd" clip-rule="evenodd" d="M25 31.9962C25 30.3415 26.3465 29 28 29C29.6569 29 31 30.345 31 31.9962V89.0038C31 90.6585 29.6535 92 28 92C26.3431 92 25 90.655 25 89.0038V31.9962ZM38 37.9999C38 36.3431 39.3465 35 41 35C42.6569 35 44 36.3379 44 37.9999V83.0001C44 84.6569 42.6535 86 41 86C39.3431 86 38 84.6621 38 83.0001V37.9999ZM51 43.9955C51 42.3411 52.3465 41 54 41C55.6569 41 57 42.3425 57 43.9955V77.0045C57 78.6589 55.6535 80 54 80C52.3431 80 51 78.6575 51 77.0045V43.9955Z" fill="#E26DFF"/>
<path fill-rule="evenodd" clip-rule="evenodd" d="M95 89.0038C95 90.6585 93.6535 92 92 92C90.3431 92 89 90.655 89 89.0038V31.9962C89 30.3415 90.3465 29 92 29C93.6569 29 95 30.345 95 31.9962L95 89.0038ZM82 83.0001C82 84.6569 80.6535 86 79 86C77.3431 86 76 84.6621 76 83.0001V37.9999C76 36.3431 77.3465 35 79 35C80.6569 35 82 36.3379 82 37.9999V83.0001ZM69 77.0045C69 78.6589 67.6535 80 66 80C64.3431 80 63 78.6575 63 77.0045L63 43.9955C63 42.3411 64.3465 41 66 41C67.6569 41 69 42.3425 69 43.9955V77.0045Z" fill="#E26DFF"/>
</svg>
